<svg width="71" height="94" viewBox="0 0 71 94" fill="none" xmlns="http://www.w3.org/2000/svg">
<g clip-path="url(#clip0_3449_4179)">
<path fill-rule="evenodd" clip-rule="evenodd" d="M11.3926 93.1712H59.9546C61.4638 92.4722 63.5713 92.7549 66.4396 90.1717C67.9666 88.7966 69.4619 87.024 70.197 84.2705C71.1313 80.77 70.6322 69.8535 70.6322 65.5108C70.6322 61.3436 70.9708 28.2361 70.4169 27.2796L44.1114 27.2644C44.1114 24.0746 43.8343 1.04753 44.2455 0.182839V0H11.3886C10.1942 0.553952 8.70972 0.291569 6.12761 2.03926C0.0155796 6.17617 0.710134 11.6573 0.710134 18.0157V75.1561C0.710134 80.119 0.240111 83.882 2.66689 87.6686C5.73855 92.4616 10.0271 92.5383 11.3926 93.1715V93.1712Z" fill="#0091CF"/>
<path fill-rule="evenodd" clip-rule="evenodd" d="M70.4164 27.2803C70.0096 26.5633 69.4881 26.2119 68.8079 25.5753L63.8717 20.4858C62.7597 19.3198 61.8075 18.2571 60.7101 17.0823L45.9775 1.92271C45.3162 1.3679 44.9045 0.743555 44.2447 0.183594C43.8335 1.04829 44.1106 24.0756 44.1106 27.2652L70.4161 27.2803H70.4164Z" fill="#8FCFFE"/>
<path d="M16.232 60V46H21.552C24.972 46 27.072 47.84 27.072 51.06V54.96C27.072 58.2 24.792 60 21.632 60H16.232ZM21.312 48.72H19.352V57.28H21.292C23.052 57.28 23.872 56.32 23.872 54.82V51.2C23.872 49.68 23.052 48.72 21.312 48.72ZM35.3383 60.2C31.8583 60.2 29.5983 58.28 29.5983 54.8V51.22C29.5983 47.74 31.8583 45.8 35.3383 45.8C38.8383 45.8 41.0983 47.74 41.0983 51.22V54.8C41.0983 58.28 38.8383 60.2 35.3383 60.2ZM35.3383 48.52C33.6183 48.52 32.7983 49.64 32.7983 51.36V54.66C32.7983 56.36 33.6183 57.48 35.3383 57.48C37.0783 57.48 37.8983 56.36 37.8983 54.66V51.36C37.8983 49.64 37.0783 48.52 35.3383 48.52ZM49.3617 60.2C45.8817 60.2 43.6217 58.28 43.6217 54.8V51.22C43.6217 47.74 45.8817 45.8 49.0817 45.8C52.4217 45.8 54.2417 47.72 54.4017 50.58H51.3217C51.1817 49.16 50.5217 48.52 49.1417 48.52C47.6417 48.52 46.8217 49.64 46.8217 51.36V54.66C46.8217 56.36 47.6417 57.48 49.1417 57.48C50.5217 57.48 51.2017 56.86 51.3217 55.42H54.4017C54.2817 58.46 52.3017 60.2 49.3617 60.2Z" fill="#8FCFFE"/>
</g>
<defs>
<clipPath id="clip0_3449_4179">
<rect width="70.0921" height="93.1712" fill="white" transform="translate(0.673004)"/>
</clipPath>
</defs>
</svg>
