<svg width="1568" height="153" viewBox="0 0 1568 153" fill="none" xmlns="http://www.w3.org/2000/svg">
<mask id="mask0_52_192" style="mask-type:alpha" maskUnits="userSpaceOnUse" x="0" y="0" width="1568" height="153">
<rect width="1568" height="153" fill="#D9D9D9"/>
</mask>
<g mask="url(#mask0_52_192)">
<path fill-rule="evenodd" clip-rule="evenodd" d="M1533.84 249.546C1564.49 211.336 1576.06 176.374 1568.28 146.232C1560.51 116.089 1533.49 91.0768 1488.18 72.4484C1443 53.8707 1381.03 42.2694 1306.33 38.2151C1157.03 30.1116 958.832 52.2524 747.271 106.796C535.711 161.339 351.51 237.787 224.739 317.064C161.314 356.728 112.675 396.847 82.1092 434.953C51.4596 473.163 39.8941 508.125 47.6653 538.267C55.4364 568.41 82.4641 593.422 127.767 612.051C172.948 630.628 234.92 642.23 309.616 646.284C458.915 654.388 657.117 632.247 868.678 577.703C1080.24 523.16 1264.44 446.713 1391.21 367.435C1454.64 327.771 1503.27 287.653 1533.84 249.546ZM870.675 585.45C1295.03 476.046 1610.96 278.473 1576.33 144.157C1541.7 9.8406 1169.63 -10.3548 745.274 99.0489C320.922 208.453 4.98804 406.027 39.6165 540.343C74.2449 674.658 446.323 694.854 870.675 585.45Z" fill="url(#paint0_linear_52_192)"/>
<path fill-rule="evenodd" clip-rule="evenodd" d="M82.6234 49.247C34.0075 67.7518 4.58758 93.5731 -4.54369 125.368C-13.675 157.163 -2.4396 194.661 28.9489 236.142C60.2318 277.484 110.585 321.438 176.555 365.301C308.415 452.972 501.1 539.244 723.34 603.07C945.581 666.895 1154.68 696.012 1312.97 691.668C1392.16 689.495 1458.16 678.956 1506.61 660.514C1555.23 642.009 1584.65 616.188 1593.78 584.393C1602.91 552.598 1591.68 515.1 1560.29 473.619C1529 432.277 1478.65 388.323 1412.68 344.46C1280.82 256.789 1088.14 170.517 865.896 106.691C643.655 42.8658 434.556 13.7494 276.27 18.093C197.079 20.2662 131.076 30.8045 82.6234 49.247ZM868.104 99.0022C422.493 -28.9736 28.3523 -18.1577 -12.2329 123.16C-52.8181 264.478 275.521 482.783 721.132 610.759C1166.74 738.735 1560.88 727.919 1601.47 586.601C1642.05 445.283 1313.72 226.978 868.104 99.0022Z" fill="url(#paint1_linear_52_192)"/>
</g>
<defs>
<linearGradient id="paint0_linear_52_192" x1="363.994" y1="664.463" x2="1454.65" y2="19.4415" gradientUnits="userSpaceOnUse">
<stop stop-color="#5724EB"/>
<stop offset="0.364583" stop-color="#620B63"/>
<stop offset="0.645833" stop-color="#FFB66D"/>
<stop offset="1" stop-color="#E4601F"/>
</linearGradient>
<linearGradient id="paint1_linear_52_192" x1="1182.01" y1="-3.85054" x2="812.172" y2="723.723" gradientUnits="userSpaceOnUse">
<stop stop-color="#5724EB"/>
<stop offset="1" stop-color="#E4601F"/>
</linearGradient>
</defs>
</svg>
