<svg width="76" height="76" viewBox="0 0 76 76" fill="none" xmlns="http://www.w3.org/2000/svg">
<g id="Group 101">
<circle id="Ellipse 26" cx="38" cy="38" r="38" fill="#5724EB"/>
<g id="Layer_x0020_1">
<g id="_2211067422080">
<path id="Vector" fill-rule="evenodd" clip-rule="evenodd" d="M32.5347 31.7447C32.7394 32.0426 33.1641 32.1814 33.4668 32.4574C33.7957 32.7574 33.9625 32.9892 34.2572 33.3082C35.852 35.0337 36.7212 38.6957 36.383 40.9763C36.2381 41.9532 36.1593 42.9744 36.0423 43.8865L35.0694 52.7423C32.9399 52.7423 32.4263 52.3504 30.2478 53.2153C29.6865 53.4382 29.01 53.8249 28.5926 54.2268C28.1987 54.606 27.6011 55.2461 27.5447 55.9074C28.3922 55.3543 28.6988 55.1154 29.8746 54.8587C30.8284 54.6504 32.0112 54.6448 32.9551 54.8029C35.7536 55.2719 36.2158 55.6042 38.5203 56.0952C39.3474 56.2714 40.3414 56.5023 41.3062 56.525H41.7851C42.9527 56.5153 43.6705 56.4707 44.6545 56.2172C46.0953 55.8459 48.3346 54.6217 48.4555 53.2055C47.9972 53.3248 47.4124 54.1928 45.1177 54.43C44.4973 54.4941 43.4745 54.3817 42.978 54.2982C42.6112 54.2365 42.32 54.202 41.9752 54.1176C41.8623 54.0899 41.7045 54.0506 41.5255 54.0155C41.1524 53.9423 41.2401 54.0626 41.0927 53.8197C41.0241 53.7065 40.2055 46.4208 40.1365 45.6424C39.806 41.9096 38.729 37.8072 41.183 34.0749C41.3374 33.8401 41.4809 33.6468 41.6422 33.4417C41.7493 33.3055 41.7808 33.2834 41.8989 33.1515C42.732 32.2212 43.3465 31.9029 43.4655 31.7448C41.002 32.3042 39.2728 34.854 38.9506 35.0643C38.8014 33.3157 38.4263 30.8829 38.245 29.0358L38.0819 27.4964C38.054 27.1546 38.1177 27.2564 37.9209 27.0358C37.9209 28.402 37.0496 33.9629 37.0496 35.0643C36.8361 34.925 36.144 33.8283 34.5608 32.7037C34.1032 32.3787 33.0696 31.7881 32.5347 31.7448V31.7447Z" fill="white"/>
<path id="Vector_2" fill-rule="evenodd" clip-rule="evenodd" d="M41.7227 34.6782C41.3563 36.0245 42.7563 39.1676 43.8052 40.3683C44.3281 40.9669 44.8823 41.4676 45.5554 41.9049C46.327 42.4061 46.2576 42.3149 47.003 42.6555C47.9032 43.0668 49.6932 43.7552 50.9108 43.4788C51.1676 42.9572 50.9301 42.2364 50.7844 41.672C50.4403 40.3386 50.0875 39.5635 49.3731 38.4156C48.5257 37.0539 46.9569 35.964 45.4696 35.3494C44.7808 35.0648 42.4681 34.318 41.7226 34.6783L41.7227 34.6782Z" fill="white"/>
<path id="Vector_3" fill-rule="evenodd" clip-rule="evenodd" d="M26.4358 21.2458C26.1321 22.4822 26.9199 24.2232 27.2957 25.1168C27.8062 26.3308 28.6939 27.4799 29.7609 28.2723C29.9866 28.44 30.2 28.5908 30.4598 28.7492C31.7462 29.5334 33.1874 29.9983 34.7186 30.2382C35.896 30.4228 35.6703 29.6292 35.2922 28.1309C35.0266 27.0783 34.517 25.881 33.9132 24.9975C32.4473 22.852 29.93 21.515 27.3731 21.1793C26.8851 21.1152 26.7731 21.0829 26.4357 21.2459L26.4358 21.2458Z" fill="white"/>
<path id="Vector_4" fill-rule="evenodd" clip-rule="evenodd" d="M49.6434 21.6319C49.6434 21.4234 49.6056 21.419 49.5642 21.2459C49.2113 21.0808 49.1711 21.117 48.6997 21.1715C47.9523 21.2579 46.6529 21.6374 45.9756 21.9171C45.4691 22.1262 44.9101 22.4147 44.4787 22.6969C44.23 22.8597 44.0713 22.9622 43.826 23.1415C43.5495 23.3436 43.4547 23.4693 43.1931 23.6826C42.0932 24.5798 41.1057 26.5914 40.7392 28.0071C40.4253 29.2195 40.0295 30.4056 41.1427 30.2626C41.435 30.2251 41.8345 30.1569 42.1509 30.0778C43.6707 29.6978 44.8535 29.2777 46.1025 28.3709C46.3838 28.1667 46.4868 28.0352 46.7464 27.8405C48.242 26.7186 49.6434 23.4384 49.6434 21.6319Z" fill="white"/>
<path id="Vector_5" fill-rule="evenodd" clip-rule="evenodd" d="M25.0891 43.4787C26.408 43.8196 29.1441 42.7314 30.3497 41.9667C31.2078 41.4224 31.4786 41.1132 32.1195 40.4494C32.9489 39.5905 33.6528 37.9724 33.9895 36.8681C34.2144 36.1303 34.4439 35.3758 34.2772 34.6782C33.2387 34.1926 29.6744 35.5228 28.3243 36.5961C28.1991 36.6957 28.1588 36.7536 28.0382 36.8577L27.1721 37.712C26.3604 38.6418 25.9322 39.5872 25.4963 40.7104L25.0211 42.5653C24.9502 43.0279 24.9145 43.1241 25.0891 43.4787H25.0891Z" fill="white"/>
<path id="Vector_6" fill-rule="evenodd" clip-rule="evenodd" d="M44.8909 31.8219C44.8909 32.6159 47.7246 32.9026 48.6928 32.9026C49.8551 32.9026 51.1617 32.3099 51.8781 31.8384C52.3223 31.5459 53.9998 30.1476 53.9998 29.6603C53.9998 28.9368 49.2666 27.6327 46.4558 30.1048C46.1117 30.4074 44.8909 31.4716 44.8909 31.8219Z" fill="white"/>
<path id="Vector_7" fill-rule="evenodd" clip-rule="evenodd" d="M35.9402 21.5546C35.9402 22.8281 36.5338 24.3416 37.1744 25.2924C37.9749 26.4804 38.0911 26.4885 38.8558 25.3226C40.1085 23.4127 40.5038 21.093 39.4 18.9547C39.202 18.571 39.0626 18.2469 38.8248 17.8941C38.4451 17.3305 38.2147 17.0432 38.0088 17H37.9003C37.6921 17.0444 37.486 17.3442 37.1435 17.864C36.5059 18.8319 35.9402 20.2693 35.9402 21.5546H35.9402Z" fill="white"/>
<path id="Vector_8" fill-rule="evenodd" clip-rule="evenodd" d="M22 29.6603C22 30.1476 23.6775 31.5459 24.1217 31.8383C27.3177 33.9421 31.1089 32.355 31.1089 31.899C31.1089 31.6545 30.8889 31.4367 30.6926 31.2241C29.1573 29.5612 27.7877 28.6567 25.1683 28.6567C24.3961 28.6567 22.0001 29.0997 22.0001 29.6603H22Z" fill="white"/>
<path id="Vector_9" fill-rule="evenodd" clip-rule="evenodd" d="M32.5346 31.7444V31.6675L32.4421 31.7316L32.5346 31.7444Z" fill="white"/>
</g>
</g>
</g>
</svg>
