<svg width="59" height="59" viewBox="0 0 59 59" fill="none" xmlns="http://www.w3.org/2000/svg">
<g id="iconamoon:profile">
<g id="Group">
<path id="Vector" d="M9.83301 44.2493C9.83301 41.6414 10.869 39.1402 12.7131 37.2961C14.5572 35.452 17.0584 34.416 19.6663 34.416H39.333C41.941 34.416 44.4421 35.452 46.2862 37.2961C48.1303 39.1402 49.1663 41.6414 49.1663 44.2493C49.1663 45.5533 48.6483 46.8039 47.7263 47.726C46.8042 48.648 45.5537 49.166 44.2497 49.166H14.7497C13.4457 49.166 12.1951 48.648 11.2731 47.726C10.351 46.8039 9.83301 45.5533 9.83301 44.2493Z" stroke="#323232" stroke-width="2" stroke-linejoin="round"/>
<path id="Vector_2" d="M29.5 24.583C33.5731 24.583 36.875 21.2811 36.875 17.208C36.875 13.1349 33.5731 9.83301 29.5 9.83301C25.4269 9.83301 22.125 13.1349 22.125 17.208C22.125 21.2811 25.4269 24.583 29.5 24.583Z" stroke="#323232" stroke-width="2"/>
</g>
</g>
</svg>
