<svg width="25" height="20" viewBox="0 0 25 20" fill="none" xmlns="http://www.w3.org/2000/svg">
<path fill-rule="evenodd" clip-rule="evenodd" d="M5.30394 5.51309C5.30394 4.46062 5.44722 3.66979 6.07423 2.83371C6.21094 2.65141 6.38511 2.41141 6.54547 2.26518C6.64998 2.1701 6.69795 2.14977 6.8064 2.05337C7.13371 1.76157 7.36505 1.64878 7.76466 1.45074C10.1662 0.260564 13.6825 1.89599 13.6825 5.41866C13.6825 6.49146 13.1508 7.53148 12.4396 8.24099C11.7285 8.95051 10.8852 9.36953 9.54644 9.45871C9.01736 9.49412 8.27205 9.31248 7.87573 9.13478C6.4344 8.48755 5.30394 7.07311 5.30394 5.51375V5.51309ZM0.00197173 19.4936V18.1972C0.0144593 16.9309 0.111731 16.3132 0.73874 14.7971C0.896478 14.4155 1.17581 13.9591 1.40255 13.6175C1.87314 12.9086 2.50935 12.2214 3.16199 11.6889L4.24053 10.923C4.85308 10.5564 5.45511 10.2666 6.13667 10.0286C6.35882 9.95052 6.63749 9.89741 6.81757 9.81085C6.7203 9.67905 6.44163 9.53806 6.29638 9.4338C5.80871 9.08363 5.38084 8.57936 5.04696 8.0823C4.39958 7.11836 4.21358 6.26458 4.21358 4.99308C4.21358 3.4829 5.11729 2.03108 6.24183 1.11303C6.55928 0.854014 7.08836 0.556306 7.46496 0.396959C7.74691 0.277613 8.18858 0.149087 8.48565 0.0933488C9.9421 -0.178786 11.3953 0.150399 12.5717 0.998278C12.717 1.1032 12.8123 1.17599 12.9345 1.2973C13.064 1.42582 13.1573 1.45861 13.2625 1.58452C13.3282 1.66386 13.3236 1.6796 13.4077 1.77009C14.9792 3.45077 15.2217 6.15179 13.946 8.04493C13.4715 8.7492 13.6292 8.45083 13.342 8.81215C12.9214 9.34134 12.2786 9.65741 12.1656 9.81085C12.3811 9.91446 12.6611 9.96233 12.9095 10.0607L13.904 10.4856C15.8737 11.3197 17.4767 13.1145 18.3364 15.0371C19.0114 16.548 18.9831 17.7441 18.9831 19.3985C18.9831 20.15 17.898 20.2975 17.8921 19.2588C17.8783 16.7211 17.7501 15.569 16.2168 13.6096C15.5839 12.8011 14.7492 12.163 13.8553 11.6673C12.5737 10.9571 11.271 10.5827 9.50898 10.5387C7.45312 10.4869 5.47154 11.2823 4.0026 12.3873C3.47484 12.784 3.1896 13.1191 2.78079 13.5768C2.09529 14.3447 1.40255 15.6555 1.19618 16.8608C0.919482 18.4772 1.40716 19.8241 0.628323 19.9802C0.345709 20.0366 0 19.847 0 19.4929L0.00197173 19.4936Z" fill="#323232"/>
<path fill-rule="evenodd" clip-rule="evenodd" d="M16.3337 2.58432C16.3337 3.82171 18.2154 2.39809 19.6456 4.8532C20.0136 5.48468 20.1004 6.36601 19.9111 7.09848C19.8487 7.33979 19.7672 7.54766 19.664 7.74963C19.2374 8.58374 18.5191 9.13063 17.5937 9.36801C16.9884 9.52342 16.3337 9.31621 16.3337 10.0474C16.3337 10.6651 17.223 10.5234 17.6811 10.5923C18.6255 10.7352 19.6903 11.0513 20.4724 11.5857C23.7639 13.835 22.987 16.4927 23.1756 17.3904C23.338 18.1642 24.2397 17.9347 24.2397 17.4153V16.1399C24.2397 13.8343 22.8279 11.9254 21.1632 10.7556C20.8345 10.5247 19.6916 9.89786 19.2217 9.85851C19.3393 9.68343 19.6633 9.49588 19.8736 9.28145L20.4336 8.56472C21.2013 7.42438 21.2874 5.68141 20.6584 4.45713C20.2318 3.62761 19.5102 2.87022 18.6407 2.50301C18.4172 2.40858 16.3337 1.58299 16.3337 2.58497V2.58432Z" fill="#323232"/>
</svg>
