<svg width="18" height="20" viewBox="0 0 18 20" fill="none" xmlns="http://www.w3.org/2000/svg">
<g clip-path="url(#clip0_3293_6891)">
<path fill-rule="evenodd" clip-rule="evenodd" d="M8.99995 18.565C8.82039 18.565 5.37354 16.5391 4.93271 16.2211C2.64971 14.5736 1.38452 11.8335 1.38452 8.9244V4.32522C1.38452 3.96586 1.70342 4.02015 2.3007 3.93488C3.96641 3.69719 5.79897 3.13305 7.26912 2.37947L8.99985 1.45076L10.7018 2.36475C11.8035 2.92786 13.323 3.47431 14.5633 3.72479L16.2308 4.01064C16.4801 4.03477 16.6152 4.06063 16.6152 4.32532V8.83607C16.6152 10.243 16.3692 11.5397 15.9378 12.5219C15.1634 14.2848 14.1049 15.6185 12.4639 16.6219L8.99985 18.5651L8.99995 18.565ZM0 4.14835V9.49937C0 12.5645 1.78635 15.7971 4.23129 17.4688C5.38555 18.2579 6.25261 18.6282 7.30413 19.2812C7.56291 19.4419 7.82459 19.5619 8.08297 19.7235C9.06017 20.3345 9.8206 19.8159 10.6693 19.2982L12.2269 18.4137C12.4971 18.2489 12.735 18.1354 13.006 17.9717C14.2757 17.2046 15.2859 16.2942 16.1645 15.0528C16.3401 14.8048 16.4863 14.569 16.6404 14.301C17.4136 12.9557 18 11.1204 18 9.49927V4.14825C18 3.66355 17.7455 3.27863 17.4927 3.0304C17.181 2.72421 16.8228 2.6277 16.3047 2.56411C14.1225 2.29655 12.5797 1.70737 10.7166 0.757496L9.66245 0.154407C8.63104 -0.292465 8.12858 0.332093 7.31273 0.743388C6.61322 1.096 6.45677 1.20621 5.63122 1.54553C4.51468 2.00447 2.98001 2.41944 1.73433 2.55991C1.21737 2.61819 0.836055 2.71685 0.529162 3.00863C0.267382 3.25757 0 3.65149 0 4.14825L0 4.14835Z" fill="#5724EB"/>
<path fill-rule="evenodd" clip-rule="evenodd" d="M8.48082 10.3841C8.06249 10.0978 6.95195 8.79204 6.49041 8.79204C6.08939 8.79204 5.75488 9.10324 5.75488 9.49961C5.75488 10.0247 6.52852 10.4826 6.95535 10.9261L7.64836 11.5444C7.7849 11.6743 7.84552 11.7305 7.99137 11.8573C8.23984 12.0732 8.21844 12.1089 8.56734 12.1089C8.87394 12.1089 9.0819 11.8992 9.22284 11.7175L10.5017 10.3269C10.6118 10.1924 10.6372 10.1464 10.7631 10.0192C10.8608 9.92052 10.926 9.85284 11.0233 9.75438L11.7998 8.91176C12.2756 8.33003 13.1179 7.77234 12.518 7.14246C11.9168 6.51106 11.4408 7.20513 11.0223 7.63064L9.35728 9.46679C9.0771 9.74989 8.66657 10.2571 8.48092 10.3843L8.48082 10.3841Z" fill="#5724EB"/>
</g>
<defs>
<clipPath id="clip0_3293_6891">
<rect width="18" height="20" fill="white"/>
</clipPath>
</defs>
</svg>
