<svg width="76" height="76" viewBox="0 0 76 76" fill="none" xmlns="http://www.w3.org/2000/svg">
<g id="Group 99">
<circle id="Ellipse 28" cx="38" cy="38" r="38" fill="#5724EB"/>
<g id="Layer_x0020_1">
<path id="Vector" fill-rule="evenodd" clip-rule="evenodd" d="M42.8857 51.7029C42.4655 51.6079 38.7284 49.4826 38.4999 49.4826L35.1584 51.1527C34.8312 51.311 34.3057 51.6393 34.0246 51.7029L34.7181 47.6848C34.8671 46.9832 34.9764 46.9964 34.4972 46.5536C33.9274 46.0269 33.4394 45.5325 32.8833 44.9927L31.2498 43.4509L35.9488 42.7993C36.457 42.693 36.5591 42.2852 36.9012 41.4652C37.2251 40.6887 38.278 38.9636 38.4102 38.4128L40.5516 42.4149C40.8288 42.9496 41.6257 42.8623 42.9248 43.0652L45.6602 43.4508L42.1021 46.9468C42.2532 47.6463 42.8856 51.1555 42.8856 51.7028L42.8857 51.7029ZM36.9783 33.6353C36.9783 32.2755 37.3618 32.282 37.5154 31.7243H39.574C39.9572 32.4271 40.1111 32.6495 40.1111 33.7223C38.6468 33.3912 37.9969 33.6353 36.9783 33.6353ZM24 19.1291C24 20.1195 24.3156 20.3498 24.8951 21.4744L27.7891 27.0047C28.1224 27.6518 28.4246 28.2349 28.7437 28.8579C29.0083 29.374 29.8828 31.1713 30.3239 31.4939C30.6038 31.6986 31.0265 31.7785 31.4326 31.8079C32.3173 31.8717 33.4689 31.8113 34.3828 31.8113C34.0498 32.4848 34.0497 33.664 34.1143 34.4172C33.8453 34.478 33.6432 34.5951 33.3463 34.7142C32.8098 34.9292 31.6039 35.6787 31.1725 35.9923C30.1456 36.7386 29.6804 37.2782 28.8947 38.2118C27.7468 39.5757 26.4168 42.3188 26.4168 44.754C26.4168 48.4994 27.1366 50.3052 29.4082 53.1432C29.6422 53.4355 30.1811 53.9585 30.4823 54.1855C31.5136 54.9629 31.74 55.1912 32.98 55.8441C34.6493 56.7232 37.3147 57.33 39.8308 57.077C42.1653 56.8424 44.371 55.8401 45.8407 54.7443C53.1429 49.2992 51.8309 38.5105 43.7225 34.7346C43.4415 34.6038 43.2248 34.5453 42.9754 34.4172C42.9754 33.4944 43.1709 32.4817 42.7964 31.7245C45.6397 31.7245 46.5356 32.1038 47.3029 30.6255L51.5976 22.3719C52.1858 21.2207 53 20.3056 53 19.1293C53 18.5967 52.3853 18 51.8364 18H43.9599C42.8833 18 42.5854 19.0174 42.1996 19.7663C41.7884 20.5645 41.4178 21.3185 41.0074 22.0837C40.5302 22.9735 38.7254 26.2076 38.5896 26.7732H38.4106C38.2988 26.307 36.4937 23.0525 36.0238 22.1406C35.6013 21.3202 35.2214 20.6698 34.8007 19.8532C34.4639 19.1997 34.0412 18.0001 33.1299 18.0001H25.343C24.6781 18.0001 24.0004 18.5119 24.0004 19.1294L24 19.1291Z" fill="white"/>
</g>
</g>
</svg>
