<svg width="77" height="77" viewBox="0 0 77 77" fill="none" xmlns="http://www.w3.org/2000/svg">
<g id="Group 100">
<circle id="Ellipse 27" cx="38.5" cy="38.5" r="38.5" fill="#5724EB"/>
<path id="Star 2" d="M35.6468 21.7812C36.5449 19.0172 40.4551 19.0172 41.3532 21.7812L43.5516 28.5471C43.9532 29.7832 45.1051 30.6201 46.4047 30.6201L53.5189 30.6201C56.4251 30.6201 57.6334 34.3389 55.2822 36.0471L49.5268 40.2287C48.4753 40.9926 48.0353 42.3467 48.437 43.5828L50.6354 50.3488C51.5334 53.1127 48.37 55.4111 46.0188 53.7029L40.2634 49.5213C39.2119 48.7574 37.7881 48.7574 36.7366 49.5213L30.9812 53.7029C28.63 55.4111 25.4666 53.1127 26.3646 50.3488L28.563 43.5828C28.9647 42.3467 28.5247 40.9926 27.4732 40.2287L21.7178 36.0471C19.3666 34.3389 20.5749 30.6201 23.4811 30.6201L30.5953 30.6201C31.8949 30.6201 33.0468 29.7832 33.4484 28.5471L35.6468 21.7812Z" fill="white"/>
</g>
</svg>
