<svg width="24" height="31" viewBox="0 0 24 31" fill="none" xmlns="http://www.w3.org/2000/svg">
<path id="Vector" d="M23.2335 10.728C23.0625 10.863 20.0437 12.5942 20.0437 16.4436C20.0437 20.896 23.885 22.4712 24 22.5102C23.9823 22.6062 23.3898 24.6674 21.9747 26.7676C20.7129 28.6158 19.3952 30.461 17.3905 30.461C15.3858 30.461 14.8699 29.2759 12.5557 29.2759C10.3005 29.2759 9.49859 30.5 7.66491 30.5C5.83122 30.5 4.55177 28.7898 3.0807 26.6896C1.37674 24.2234 0 20.392 0 16.7556C0 10.923 3.72632 7.82973 7.39369 7.82973C9.34234 7.82973 10.9667 9.13186 12.1901 9.13186C13.3546 9.13186 15.1706 7.75173 17.3875 7.75173C18.2277 7.75173 21.2465 7.82973 23.2335 10.728ZM16.3351 5.28248C17.2519 4.17537 17.9005 2.63921 17.9005 1.10306C17.9005 0.890039 17.8828 0.674017 17.8445 0.5C16.3528 0.557006 14.5781 1.5111 13.5079 2.77423C12.6677 3.74632 11.8836 5.28248 11.8836 6.83963C11.8836 7.07366 11.9219 7.30768 11.9396 7.38269C12.0339 7.40069 12.1872 7.42169 12.3405 7.42169C13.6789 7.42169 15.3622 6.5096 16.3351 5.28248Z" fill="black"/>
</svg>
