<svg width="17" height="18" viewBox="0 0 17 18" fill="none" xmlns="http://www.w3.org/2000/svg">
<g id="instagram logo" clip-path="url(#clip0_237_5424)">
<path id="Vector" d="M8.50356 4.95683C6.23213 4.95683 4.39999 6.76035 4.39999 8.99628C4.39999 11.2322 6.23213 13.0357 8.50356 13.0357C10.775 13.0357 12.6071 11.2322 12.6071 8.99628C12.6071 6.76035 10.775 4.95683 8.50356 4.95683ZM8.50356 11.6225C7.0357 11.6225 5.8357 10.4447 5.8357 8.99628C5.8357 7.54785 7.03213 6.37011 8.50356 6.37011C9.97499 6.37011 11.1714 7.54785 11.1714 8.99628C11.1714 10.4447 9.97142 11.6225 8.50356 11.6225ZM13.7321 4.7916C13.7321 5.31543 13.3036 5.73379 12.775 5.73379C12.2428 5.73379 11.8178 5.31191 11.8178 4.7916C11.8178 4.27129 12.2464 3.84941 12.775 3.84941C13.3036 3.84941 13.7321 4.27129 13.7321 4.7916ZM16.45 5.74785C16.3893 4.48574 16.0964 3.36777 15.1571 2.44668C14.2214 1.52559 13.0857 1.2373 11.8036 1.17402C10.4821 1.1002 6.52142 1.1002 5.19999 1.17402C3.92142 1.23379 2.78571 1.52207 1.84642 2.44316C0.907136 3.36426 0.61785 4.48222 0.553564 5.74433C0.478564 7.04511 0.478564 10.9439 0.553564 12.2447C0.614279 13.5068 0.907136 14.6248 1.84642 15.5459C2.78571 16.467 3.91785 16.7553 5.19999 16.8185C6.52142 16.8924 10.4821 16.8924 11.8036 16.8185C13.0857 16.7588 14.2214 16.4705 15.1571 15.5459C16.0928 14.6248 16.3857 13.5068 16.45 12.2447C16.525 10.9439 16.525 7.04863 16.45 5.74785ZM14.7428 13.6404C14.4643 14.3295 13.925 14.8603 13.2214 15.1381C12.1678 15.5494 9.66784 15.4545 8.50356 15.4545C7.33927 15.4545 4.8357 15.5459 3.7857 15.1381C3.08571 14.8639 2.54642 14.333 2.26428 13.6404C1.84642 12.6033 1.94285 10.1424 1.94285 8.99628C1.94285 7.85019 1.84999 5.38574 2.26428 4.35215C2.54285 3.66308 3.08213 3.13223 3.7857 2.85449C4.83928 2.44316 7.33927 2.53809 8.50356 2.53809C9.66784 2.53809 12.1714 2.44668 13.2214 2.85449C13.9214 3.12871 14.4607 3.65957 14.7428 4.35215C15.1607 5.38926 15.0643 7.85019 15.0643 8.99628C15.0643 10.1424 15.1607 12.6068 14.7428 13.6404Z" fill="white"/>
</g>
<defs>
<clipPath id="clip0_237_5424">
<rect width="16" height="18" fill="white" transform="translate(0.5)"/>
</clipPath>
</defs>
</svg>
