<svg width="25" height="24" viewBox="0 0 25 24" fill="none" xmlns="http://www.w3.org/2000/svg">
<g clip-path="url(#clip0_237_5426)">
<path d="M8.13269 19V8.87953H4.70239V19H8.13269ZM6.41798 7.49692C7.61419 7.49692 8.35877 6.71978 8.35877 5.74862C8.33648 4.75556 7.61423 4 6.44068 4C5.26731 4 4.5 4.75558 4.5 5.74862C4.5 6.71983 5.2444 7.49692 6.39559 7.49692H6.41787H6.41798ZM10.0313 19H13.4617V13.3482C13.4617 13.0458 13.4839 12.7436 13.5745 12.5274C13.8225 11.923 14.3869 11.2971 15.3345 11.2971C16.5758 11.2971 17.0724 12.2252 17.0724 13.5857V18.9999H20.5025V13.1969C20.5025 10.0883 18.8101 8.64193 16.5532 8.64193C14.7027 8.64193 13.8902 9.65626 13.4388 10.3471H13.4617V8.87932H10.0314C10.0764 9.82897 10.0314 18.9998 10.0314 18.9998L10.0313 19Z" fill="white"/>
</g>
<defs>
<clipPath id="clip0_237_5426">
<rect width="16" height="15" fill="white" transform="translate(4.5 4)"/>
</clipPath>
</defs>
</svg>
