<svg width="25" height="24" viewBox="0 0 25 24" fill="none" xmlns="http://www.w3.org/2000/svg">
<g clip-path="url(#clip0_237_5430)">
<path d="M21.4998 6.7049C20.8257 6.98937 20.1108 7.1761 19.3787 7.25887C20.1412 6.82346 20.7267 6.13398 21.0024 5.31247C20.2776 5.72228 19.4845 6.01101 18.6574 6.1662C17.9838 5.48248 17.0241 5.05518 15.9619 5.05518C13.9224 5.05518 12.2689 6.63041 12.2689 8.57326C12.2689 8.84904 12.3015 9.11752 12.3645 9.37508C9.29533 9.22831 6.57424 7.82771 4.75279 5.69918C4.43498 6.21878 4.25287 6.82319 4.25287 7.46786C4.25287 8.68848 4.90488 9.76527 5.89572 10.3962C5.30928 10.3787 4.73574 10.2278 4.22299 9.95611C4.22278 9.97085 4.22278 9.98559 4.22278 10.0004C4.22278 11.705 5.49572 13.1269 7.18504 13.4501C6.64124 13.591 6.07082 13.6117 5.51737 13.5104C5.98727 14.9082 7.35112 15.9253 8.96705 15.9537C7.70318 16.8973 6.11081 17.4598 4.3807 17.4598C4.08258 17.4598 3.78867 17.4431 3.49976 17.4106C5.13403 18.4088 7.07515 18.9913 9.16062 18.9913C15.9533 18.9913 19.6677 13.6303 19.6677 8.98127C19.6677 8.82868 19.6642 8.67695 19.657 8.5261C20.38 8.02819 21.004 7.41147 21.4998 6.7049Z" fill="white"/>
</g>
<defs>
<clipPath id="clip0_237_5430">
<rect width="18" height="14" fill="white" transform="translate(3.49976 5)"/>
</clipPath>
</defs>
</svg>
